<?xml version="1.0" encoding="utf-8"?>
<svg xmlns="http://www.w3.org/2000/svg" xmlns:xlink="http://www.w3.org/1999/xlink" width="672" height="480" viewBox="0 0 2688 1920">
<defs>
  <clipPath id="clip750">
    <rect x="0" y="0" width="2688" height="1920"/>
  </clipPath>
</defs>
<path clip-path="url(#clip750)" d="M0 1920 L2688 1920 L2688 0 L0 0  Z" fill="#ffffff" fill-rule="evenodd" fill-opacity="1"/>
<defs>
  <clipPath id="clip751">
    <rect x="537" y="0" width="1883" height="1883"/>
  </clipPath>
</defs>
<path clip-path="url(#clip750)" d="M217.599 1720.96 L2640.76 1720.96 L2640.76 47.2441 L217.599 47.2441  Z" fill="#ffffff" fill-rule="evenodd" fill-opacity="1"/>
<defs>
  <clipPath id="clip752">
    <rect x="217" y="47" width="2424" height="1675"/>
  </clipPath>
</defs>
<polyline clip-path="url(#clip752)" style="stroke:#000000; stroke-linecap:round; stroke-linejoin:round; stroke-width:2; stroke-opacity:0.1; fill:none" points="1116.91,1720.96 1116.91,47.2441 "/>
<polyline clip-path="url(#clip752)" style="stroke:#000000; stroke-linecap:round; stroke-linejoin:round; stroke-width:2; stroke-opacity:0.1; fill:none" points="2109.71,1720.96 2109.71,47.2441 "/>
<polyline clip-path="url(#clip752)" style="stroke:#000000; stroke-linecap:round; stroke-linejoin:round; stroke-width:2; stroke-opacity:0.1; fill:none" points="217.599,1665.42 2640.76,1665.42 "/>
<polyline clip-path="url(#clip752)" style="stroke:#000000; stroke-linecap:round; stroke-linejoin:round; stroke-width:2; stroke-opacity:0.1; fill:none" points="217.599,1358.78 2640.76,1358.78 "/>
<polyline clip-path="url(#clip752)" style="stroke:#000000; stroke-linecap:round; stroke-linejoin:round; stroke-width:2; stroke-opacity:0.1; fill:none" points="217.599,1052.13 2640.76,1052.13 "/>
<polyline clip-path="url(#clip752)" style="stroke:#000000; stroke-linecap:round; stroke-linejoin:round; stroke-width:2; stroke-opacity:0.1; fill:none" points="217.599,745.487 2640.76,745.487 "/>
<polyline clip-path="url(#clip752)" style="stroke:#000000; stroke-linecap:round; stroke-linejoin:round; stroke-width:2; stroke-opacity:0.1; fill:none" points="217.599,438.842 2640.76,438.842 "/>
<polyline clip-path="url(#clip752)" style="stroke:#000000; stroke-linecap:round; stroke-linejoin:round; stroke-width:2; stroke-opacity:0.1; fill:none" points="217.599,132.198 2640.76,132.198 "/>
<polyline clip-path="url(#clip750)" style="stroke:#000000; stroke-linecap:round; stroke-linejoin:round; stroke-width:4; stroke-opacity:1; fill:none" points="217.599,1720.96 2640.76,1720.96 "/>
<polyline clip-path="url(#clip750)" style="stroke:#000000; stroke-linecap:round; stroke-linejoin:round; stroke-width:4; stroke-opacity:1; fill:none" points="1116.91,1720.96 1116.91,1702.06 "/>
<polyline clip-path="url(#clip750)" style="stroke:#000000; stroke-linecap:round; stroke-linejoin:round; stroke-width:4; stroke-opacity:1; fill:none" points="2109.71,1720.96 2109.71,1702.06 "/>
<path clip-path="url(#clip750)" d="M1103.66 1787.29 L1103.66 1789.38 L1084.07 1789.38 Q1084.35 1793.77 1086.71 1796.09 Q1089.1 1798.38 1093.33 1798.38 Q1095.79 1798.38 1098.08 1797.78 Q1100.39 1797.18 1102.66 1795.97 L1102.66 1800 Q1100.37 1800.97 1097.96 1801.48 Q1095.55 1801.99 1093.08 1801.99 Q1086.87 1801.99 1083.24 1798.38 Q1079.63 1794.77 1079.63 1788.61 Q1079.63 1782.25 1083.05 1778.52 Q1086.5 1774.77 1092.34 1774.77 Q1097.57 1774.77 1100.6 1778.15 Q1103.66 1781.51 1103.66 1787.29 M1099.4 1786.04 Q1099.35 1782.55 1097.43 1780.46 Q1095.53 1778.38 1092.38 1778.38 Q1088.82 1778.38 1086.67 1780.39 Q1084.54 1782.41 1084.21 1786.07 L1099.4 1786.04 Z" fill="#000000" fill-rule="nonzero" fill-opacity="1" /><path clip-path="url(#clip750)" d="M1103.66 1760.24 L1127.77 1760.24 L1127.77 1763.43 L1103.66 1763.43 L1103.66 1760.24 Z" fill="#000000" fill-rule="nonzero" fill-opacity="1" /><path clip-path="url(#clip750)" d="M1146.41 1749.14 L1136.81 1764.13 L1146.41 1764.13 L1146.41 1749.14 M1145.41 1745.83 L1150.19 1745.83 L1150.19 1764.13 L1154.19 1764.13 L1154.19 1767.29 L1150.19 1767.29 L1150.19 1773.91 L1146.41 1773.91 L1146.41 1767.29 L1133.73 1767.29 L1133.73 1763.62 L1145.41 1745.83 Z" fill="#000000" fill-rule="nonzero" fill-opacity="1" /><path clip-path="url(#clip750)" d="M2097.3 1787.29 L2097.3 1789.38 L2077.72 1789.38 Q2077.99 1793.77 2080.35 1796.09 Q2082.74 1798.38 2086.97 1798.38 Q2089.43 1798.38 2091.72 1797.78 Q2094.03 1797.18 2096.3 1795.97 L2096.3 1800 Q2094.01 1800.97 2091.6 1801.48 Q2089.2 1801.99 2086.72 1801.99 Q2080.52 1801.99 2076.88 1798.38 Q2073.27 1794.77 2073.27 1788.61 Q2073.27 1782.25 2076.7 1778.52 Q2080.15 1774.77 2085.98 1774.77 Q2091.21 1774.77 2094.24 1778.15 Q2097.3 1781.51 2097.3 1787.29 M2093.04 1786.04 Q2092.99 1782.55 2091.07 1780.46 Q2089.17 1778.38 2086.03 1778.38 Q2082.46 1778.38 2080.31 1780.39 Q2078.18 1782.41 2077.85 1786.07 L2093.04 1786.04 Z" fill="#000000" fill-rule="nonzero" fill-opacity="1" /><path clip-path="url(#clip750)" d="M2097.3 1760.24 L2121.41 1760.24 L2121.41 1763.43 L2097.3 1763.43 L2097.3 1760.24 Z" fill="#000000" fill-rule="nonzero" fill-opacity="1" /><path clip-path="url(#clip750)" d="M2132.88 1770.71 L2146.14 1770.71 L2146.14 1773.91 L2128.31 1773.91 L2128.31 1770.71 Q2130.48 1768.47 2134.2 1764.71 Q2137.94 1760.93 2138.9 1759.84 Q2140.73 1757.79 2141.44 1756.38 Q2142.17 1754.95 2142.17 1753.58 Q2142.17 1751.34 2140.59 1749.93 Q2139.03 1748.52 2136.51 1748.52 Q2134.73 1748.52 2132.73 1749.14 Q2130.76 1749.76 2128.5 1751.02 L2128.5 1747.18 Q2130.8 1746.26 2132.79 1745.79 Q2134.78 1745.32 2136.44 1745.32 Q2140.8 1745.32 2143.4 1747.5 Q2145.99 1749.69 2145.99 1753.33 Q2145.99 1755.06 2145.33 1756.63 Q2144.69 1758.17 2142.98 1760.27 Q2142.51 1760.82 2139.99 1763.43 Q2137.47 1766.03 2132.88 1770.71 Z" fill="#000000" fill-rule="nonzero" fill-opacity="1" /><path clip-path="url(#clip750)" d="M1434.38 1871.98 L1432.98 1864.63 Q1431.55 1857.09 1425.88 1857.09 Q1421.62 1857.09 1419.68 1860.59 Q1417.23 1864.98 1417.23 1870.77 Q1417.23 1877.78 1419.61 1881.12 Q1422.03 1884.52 1425.88 1884.52 Q1430.15 1884.52 1432.44 1877.74 L1434.38 1871.98 M1437.66 1862.24 L1440.81 1852.92 L1446.03 1852.92 L1439.51 1872.24 L1440.78 1879.21 Q1441.07 1880.77 1442.18 1882.07 Q1443.48 1883.6 1444.5 1883.6 L1447.3 1883.6 L1447.3 1888.57 L1443.8 1888.57 Q1440.81 1888.57 1438.14 1885.89 Q1436.83 1884.55 1436.29 1881.75 Q1434.83 1885.29 1431.84 1888.06 Q1430.43 1889.36 1425.88 1889.36 Q1418.4 1889.36 1414.78 1884.52 Q1411.05 1879.53 1411.05 1870.77 Q1411.05 1861.42 1415.09 1857.02 Q1419.58 1852.12 1425.88 1852.12 Q1435.78 1852.12 1437.66 1862.24 Z" fill="#000000" fill-rule="nonzero" fill-opacity="1" /><polyline clip-path="url(#clip750)" style="stroke:#000000; stroke-linecap:round; stroke-linejoin:round; stroke-width:4; stroke-opacity:1; fill:none" points="217.599,1720.96 217.599,47.2441 "/>
<polyline clip-path="url(#clip750)" style="stroke:#000000; stroke-linecap:round; stroke-linejoin:round; stroke-width:4; stroke-opacity:1; fill:none" points="217.599,1665.42 236.497,1665.42 "/>
<polyline clip-path="url(#clip750)" style="stroke:#000000; stroke-linecap:round; stroke-linejoin:round; stroke-width:4; stroke-opacity:1; fill:none" points="217.599,1358.78 236.497,1358.78 "/>
<polyline clip-path="url(#clip750)" style="stroke:#000000; stroke-linecap:round; stroke-linejoin:round; stroke-width:4; stroke-opacity:1; fill:none" points="217.599,1052.13 236.497,1052.13 "/>
<polyline clip-path="url(#clip750)" style="stroke:#000000; stroke-linecap:round; stroke-linejoin:round; stroke-width:4; stroke-opacity:1; fill:none" points="217.599,745.487 236.497,745.487 "/>
<polyline clip-path="url(#clip750)" style="stroke:#000000; stroke-linecap:round; stroke-linejoin:round; stroke-width:4; stroke-opacity:1; fill:none" points="217.599,438.842 236.497,438.842 "/>
<polyline clip-path="url(#clip750)" style="stroke:#000000; stroke-linecap:round; stroke-linejoin:round; stroke-width:4; stroke-opacity:1; fill:none" points="217.599,132.198 236.497,132.198 "/>
<path clip-path="url(#clip750)" d="M116.214 1665.87 L145.89 1665.87 L145.89 1669.81 L116.214 1669.81 L116.214 1665.87 Z" fill="#000000" fill-rule="nonzero" fill-opacity="1" /><path clip-path="url(#clip750)" d="M170.149 1664.07 Q173.506 1664.79 175.381 1667.05 Q177.279 1669.32 177.279 1672.66 Q177.279 1677.77 173.76 1680.57 Q170.242 1683.37 163.76 1683.37 Q161.585 1683.37 159.27 1682.93 Q156.978 1682.52 154.524 1681.66 L154.524 1677.15 Q156.469 1678.28 158.784 1678.86 Q161.098 1679.44 163.622 1679.44 Q168.02 1679.44 170.311 1677.7 Q172.626 1675.97 172.626 1672.66 Q172.626 1669.6 170.473 1667.89 Q168.344 1666.15 164.524 1666.15 L160.497 1666.15 L160.497 1662.31 L164.71 1662.31 Q168.159 1662.31 169.987 1660.94 Q171.816 1659.55 171.816 1656.96 Q171.816 1654.3 169.918 1652.89 Q168.043 1651.45 164.524 1651.45 Q162.603 1651.45 160.404 1651.87 Q158.205 1652.29 155.566 1653.16 L155.566 1649 Q158.228 1648.26 160.543 1647.89 Q162.881 1647.52 164.941 1647.52 Q170.265 1647.52 173.367 1649.95 Q176.469 1652.35 176.469 1656.47 Q176.469 1659.35 174.825 1661.34 Q173.182 1663.3 170.149 1664.07 Z" fill="#000000" fill-rule="nonzero" fill-opacity="1" /><path clip-path="url(#clip750)" d="M117.164 1359.23 L146.839 1359.23 L146.839 1363.16 L117.164 1363.16 L117.164 1359.23 Z" fill="#000000" fill-rule="nonzero" fill-opacity="1" /><path clip-path="url(#clip750)" d="M160.96 1372.12 L177.279 1372.12 L177.279 1376.06 L155.335 1376.06 L155.335 1372.12 Q157.997 1369.37 162.58 1364.74 Q167.186 1360.08 168.367 1358.74 Q170.612 1356.22 171.492 1354.48 Q172.395 1352.72 172.395 1351.03 Q172.395 1348.28 170.45 1346.54 Q168.529 1344.81 165.427 1344.81 Q163.228 1344.81 160.774 1345.57 Q158.344 1346.33 155.566 1347.89 L155.566 1343.16 Q158.39 1342.03 160.844 1341.45 Q163.298 1340.87 165.335 1340.87 Q170.705 1340.87 173.899 1343.56 Q177.094 1346.24 177.094 1350.73 Q177.094 1352.86 176.284 1354.78 Q175.497 1356.68 173.39 1359.27 Q172.811 1359.95 169.71 1363.16 Q166.608 1366.36 160.96 1372.12 Z" fill="#000000" fill-rule="nonzero" fill-opacity="1" /><path clip-path="url(#clip750)" d="M116.793 1052.58 L146.469 1052.58 L146.469 1056.52 L116.793 1056.52 L116.793 1052.58 Z" fill="#000000" fill-rule="nonzero" fill-opacity="1" /><path clip-path="url(#clip750)" d="M157.372 1065.48 L165.01 1065.48 L165.01 1039.11 L156.7 1040.78 L156.7 1036.52 L164.964 1034.85 L169.64 1034.85 L169.64 1065.48 L177.279 1065.48 L177.279 1069.41 L157.372 1069.41 L157.372 1065.48 Z" fill="#000000" fill-rule="nonzero" fill-opacity="1" /><path clip-path="url(#clip750)" d="M165.335 731.286 Q161.723 731.286 159.895 734.851 Q158.089 738.392 158.089 745.522 Q158.089 752.628 159.895 756.193 Q161.723 759.735 165.335 759.735 Q168.969 759.735 170.774 756.193 Q172.603 752.628 172.603 745.522 Q172.603 738.392 170.774 734.851 Q168.969 731.286 165.335 731.286 M165.335 727.582 Q171.145 727.582 174.2 732.189 Q177.279 736.772 177.279 745.522 Q177.279 754.249 174.2 758.855 Q171.145 763.438 165.335 763.438 Q159.524 763.438 156.446 758.855 Q153.39 754.249 153.39 745.522 Q153.39 736.772 156.446 732.189 Q159.524 727.582 165.335 727.582 Z" fill="#000000" fill-rule="nonzero" fill-opacity="1" /><path clip-path="url(#clip750)" d="M157.372 452.187 L165.01 452.187 L165.01 425.822 L156.7 427.488 L156.7 423.229 L164.964 421.562 L169.64 421.562 L169.64 452.187 L177.279 452.187 L177.279 456.122 L157.372 456.122 L157.372 452.187 Z" fill="#000000" fill-rule="nonzero" fill-opacity="1" /><path clip-path="url(#clip750)" d="M160.96 145.542 L177.279 145.542 L177.279 149.478 L155.335 149.478 L155.335 145.542 Q157.997 142.788 162.58 138.158 Q167.186 133.505 168.367 132.163 Q170.612 129.64 171.492 127.904 Q172.395 126.144 172.395 124.455 Q172.395 121.7 170.45 119.964 Q168.529 118.228 165.427 118.228 Q163.228 118.228 160.774 118.992 Q158.344 119.755 155.566 121.306 L155.566 116.584 Q158.39 115.45 160.844 114.871 Q163.298 114.293 165.335 114.293 Q170.705 114.293 173.899 116.978 Q177.094 119.663 177.094 124.154 Q177.094 126.283 176.284 128.204 Q175.497 130.103 173.39 132.695 Q172.811 133.366 169.71 136.584 Q166.608 139.778 160.96 145.542 Z" fill="#000000" fill-rule="nonzero" fill-opacity="1" /><path clip-path="url(#clip750)" d="M59.4423 893.617 L75.1974 893.617 L75.1974 899.505 L26.2133 899.505 Q11.6995 899.505 11.6995 885.946 Q11.6995 872.133 23.9535 872.133 Q32.6745 872.133 35.8573 877.607 Q38.7219 868.695 47.2201 868.695 Q62.3068 868.695 62.3068 884.037 Q62.3068 890.784 59.4423 893.617 M51.8034 893.617 Q57.3098 890.084 57.3098 883.814 Q57.3098 874.647 47.3156 874.647 Q38.34 874.647 39.0402 889.416 L33.6293 889.416 Q33.6293 877.862 23.4442 877.862 Q16.4738 877.862 16.4738 885.31 Q16.4738 893.617 26.4043 893.617 L51.8034 893.617 Z" fill="#000000" fill-rule="nonzero" fill-opacity="1" /><polyline clip-path="url(#clip752)" style="stroke:#009af9; stroke-linecap:round; stroke-linejoin:round; stroke-width:4; stroke-opacity:1; fill:none" points="2572.18,745.487 2549.09,787.633 2525.99,827.864 2502.9,866.266 2479.81,902.581 2456.72,936.532 2433.63,968.939 2410.54,999.873 2387.45,1029.4 2364.36,1057.59 2341.27,1084.49 2318.18,1110.89 2295.09,1136.81 2271.99,1161.55 2248.9,1185.16 2225.81,1207.7 2202.72,1229.22 2179.63,1249.76 2156.54,1269.36 2133.45,1288.08 2110.36,1305.94 2087.27,1322.99 2064.18,1339.27 2041.09,1354.81 2017.99,1369.64 1994.9,1383.79 1971.81,1397.31 1948.72,1410.21 1925.63,1422.52 1902.54,1434.27 1879.45,1445.49 1856.36,1456.2 1833.27,1466.42 1810.18,1476.18 1787.09,1485.49 1764,1494.38 1740.9,1502.87 1717.81,1510.97 1694.72,1518.7 1671.63,1526.08 1648.54,1533.13 1625.45,1539.86 1602.36,1546.28 1579.27,1552.4 1556.18,1558.25 1533.09,1563.84 1510,1569.17 1486.9,1574.25 1463.81,1579.11 1440.72,1583.75 1417.63,1588.17 1394.54,1592.39 1371.45,1596.43 1348.36,1600.28 1325.27,1603.95 1302.18,1607.46 1279.09,1610.8 1256,1614 1232.9,1617.05 1209.81,1619.96 1186.72,1622.74 1163.63,1625.39 1140.54,1627.92 1117.45,1630.34 1094.36,1632.65 1071.27,1634.85 1048.18,1636.95 1025.09,1639 1002,1641.01 978.905,1642.93 955.814,1644.76 932.723,1646.51 909.633,1648.18 886.542,1649.77 863.451,1651.29 840.36,1652.76 817.269,1654.17 794.178,1655.52 771.087,1656.81 747.996,1658.04 724.906,1659.2 701.815,1660.32 678.724,1661.38 655.633,1662.4 632.542,1663.37 609.451,1664.29 586.36,1665.17 563.269,1666.02 540.179,1666.82 517.088,1667.59 493.997,1668.32 470.906,1669.02 447.815,1669.69 424.724,1670.33 401.633,1670.94 378.542,1671.52 355.451,1672.07 332.361,1672.6 309.27,1673.11 286.179,1673.59 "/>
<polyline clip-path="url(#clip752)" style="stroke:#e26f46; stroke-linecap:round; stroke-linejoin:round; stroke-width:4; stroke-opacity:1; fill:none" points="2572.18,745.487 2549.09,745.487 2525.99,745.487 2502.9,745.487 2479.81,745.487 2456.72,745.487 2433.63,745.487 2410.54,745.487 2387.45,745.487 2364.36,745.487 2341.27,745.487 2318.18,734.376 2295.09,712.656 2271.99,691.923 2248.9,672.133 2225.81,653.242 2202.72,635.21 2179.63,617.997 2156.54,601.567 2133.45,585.884 2110.36,570.913 2087.27,556.623 2064.18,542.982 2041.09,529.961 2017.99,517.532 1994.9,505.669 1971.81,494.344 1948.72,483.534 1925.63,473.215 1902.54,463.365 1879.45,453.963 1856.36,444.989 1833.27,436.422 1810.18,428.245 1787.09,420.439 1764,412.988 1740.9,405.876 1717.81,399.087 1694.72,392.606 1671.63,386.42 1648.54,380.516 1625.45,374.879 1602.36,369.499 1579.27,364.363 1556.18,359.461 1533.09,354.782 1510,350.315 1486.9,346.051 1463.81,341.981 1440.72,338.097 1417.63,334.388 1394.54,330.848 1371.45,327.469 1348.36,324.244 1325.27,321.165 1302.18,318.227 1279.09,315.421 1256,312.744 1232.9,310.188 1209.81,307.748 1186.72,305.419 1163.63,303.196 1140.54,301.074 1117.45,299.048 1094.36,297.115 1071.27,295.269 1048.18,293.507 1025.09,291.868 1002,290.319 978.905,288.84 955.814,287.429 932.723,286.082 909.633,284.796 886.542,283.569 863.451,282.397 840.36,281.226 817.269,280.095 794.178,279.015 771.087,277.984 747.996,276.998 724.906,276.052 701.815,275.149 678.724,274.287 655.633,273.465 632.542,272.679 609.451,271.93 586.36,271.214 563.269,270.531 540.179,269.879 517.088,269.257 493.997,268.663 470.906,268.096 447.815,267.555 424.724,267.039 401.633,266.546 378.542,266.075 355.451,265.626 332.361,265.197 309.27,264.788 286.179,264.397 "/>
<polyline clip-path="url(#clip752)" style="stroke:#3da44d; stroke-linecap:round; stroke-linejoin:round; stroke-width:4; stroke-opacity:1; fill:none" points="2572.18,745.487 2549.09,745.487 2525.99,745.487 2502.9,745.487 2479.81,745.487 2456.72,745.487 2433.63,745.487 2410.54,745.487 2387.45,745.487 2364.36,745.487 2341.27,745.487 2318.18,745.487 2295.09,745.487 2271.99,745.487 2248.9,745.487 2225.81,745.487 2202.72,745.487 2179.63,745.487 2156.54,745.487 2133.45,745.487 2110.36,745.487 2087.27,745.487 2064.18,745.487 2041.09,745.487 2017.99,745.487 1994.9,745.487 1971.81,745.487 1948.72,745.487 1925.63,745.487 1902.54,745.487 1879.45,745.487 1856.36,745.487 1833.27,745.487 1810.18,745.487 1787.09,745.487 1764,745.487 1740.9,745.487 1717.81,745.487 1694.72,745.487 1671.63,745.487 1648.54,745.487 1625.45,745.487 1602.36,745.487 1579.27,745.487 1556.18,745.487 1533.09,745.487 1510,745.487 1486.9,745.487 1463.81,745.487 1440.72,745.487 1417.63,745.487 1394.54,745.487 1371.45,745.487 1348.36,745.487 1325.27,745.487 1302.18,745.487 1279.09,745.487 1256,745.487 1232.9,745.487 1209.81,745.487 1186.72,745.487 1163.63,745.487 1140.54,745.487 1117.45,745.487 1094.36,745.487 1071.27,745.487 1048.18,745.487 1025.09,746.602 1002,748.068 978.905,749.467 955.814,750.802 932.723,752.077 909.633,753.294 886.542,754.455 863.451,755.564 840.36,756.636 817.269,757.664 794.178,758.645 771.087,759.581 747.996,760.479 724.906,761.351 701.815,762.183 678.724,762.978 655.633,763.737 632.542,764.461 609.451,765.152 586.36,765.812 563.269,766.442 540.179,767.043 517.088,767.618 493.997,768.166 470.906,768.689 447.815,769.189 424.724,769.666 401.633,770.121 378.542,770.556 355.451,770.97 332.361,771.366 309.27,771.744 286.179,772.105 "/>
<polyline clip-path="url(#clip752)" style="stroke:#c271d2; stroke-linecap:round; stroke-linejoin:round; stroke-width:4; stroke-opacity:1; fill:none" points="2572.18,745.487 2549.09,745.487 2525.99,745.487 2502.9,745.487 2479.81,745.487 2456.72,745.487 2433.63,745.487 2410.54,745.487 2387.45,745.487 2364.36,745.487 2341.27,745.487 2318.18,745.487 2295.09,745.487 2271.99,745.487 2248.9,745.487 2225.81,745.487 2202.72,745.487 2179.63,745.487 2156.54,745.487 2133.45,745.487 2110.36,745.487 2087.27,745.487 2064.18,745.487 2041.09,745.487 2017.99,745.487 1994.9,745.487 1971.81,745.487 1948.72,745.487 1925.63,745.487 1902.54,745.487 1879.45,745.487 1856.36,745.487 1833.27,745.487 1810.18,745.487 1787.09,745.487 1764,745.487 1740.9,745.487 1717.81,745.487 1694.72,745.487 1671.63,745.487 1648.54,745.487 1625.45,745.487 1602.36,745.487 1579.27,745.487 1556.18,745.487 1533.09,745.487 1510,745.487 1486.9,745.487 1463.81,745.487 1440.72,745.487 1417.63,745.487 1394.54,745.487 1371.45,745.487 1348.36,745.487 1325.27,745.487 1302.18,745.487 1279.09,745.487 1256,745.487 1232.9,745.487 1209.81,745.487 1186.72,745.487 1163.63,745.487 1140.54,745.487 1117.45,745.487 1094.36,745.487 1071.27,745.487 1048.18,745.487 1025.09,745.149 1002,743.866 978.905,742.641 955.814,741.472 932.723,740.356 909.633,739.291 886.542,738.274 863.451,737.303 840.36,736.392 817.269,735.527 794.178,734.701 771.087,733.913 747.996,733.16 724.906,732.444 701.815,731.76 678.724,731.107 655.633,730.484 632.542,729.889 609.451,729.322 586.36,728.78 563.269,728.262 540.179,727.769 517.088,727.292 493.997,726.835 470.906,726.398 447.815,725.98 424.724,725.582 401.633,725.202 378.542,724.839 355.451,724.493 332.361,724.162 309.27,723.847 286.179,723.546 "/>
<polyline clip-path="url(#clip752)" style="stroke:#ac8d18; stroke-linecap:round; stroke-linejoin:round; stroke-width:4; stroke-opacity:1; fill:none" points="2572.18,745.487 2549.09,745.487 2525.99,745.487 2502.9,745.487 2479.81,735.704 2456.72,705.896 2433.63,677.442 2410.54,650.282 2387.45,624.356 2364.36,599.608 2341.27,575.985 2318.18,553.588 2295.09,532.36 2271.99,512.097 2248.9,492.755 2225.81,474.292 2202.72,456.668 2179.63,439.846 2156.54,423.788 2133.45,408.459 2110.36,393.828 2087.27,379.861 2064.18,366.53 2041.09,353.804 2017.99,341.657 1994.9,330.061 1971.81,318.993 1948.72,308.428 1925.63,298.343 1902.54,288.717 1879.45,279.527 1856.36,270.756 1833.27,262.383 1810.18,254.391 1787.09,246.762 1764,239.48 1740.9,232.529 1717.81,225.894 1694.72,219.56 1671.63,213.514 1648.54,207.743 1625.45,202.235 1602.36,196.977 1579.27,191.957 1556.18,187.166 1533.09,182.593 1510,178.227 1486.9,174.06 1463.81,170.082 1440.72,166.285 1417.63,162.661 1394.54,159.201 1371.45,155.899 1348.36,152.747 1325.27,149.738 1302.18,146.866 1279.09,144.124 1256,141.507 1232.9,139.009 1209.81,136.624 1186.72,134.348 1163.63,132.175 1140.54,130.101 1117.45,128.121 1094.36,126.232 1071.27,124.428 1048.18,122.706 1025.09,120.999 1002,119.401 978.905,117.875 955.814,116.42 932.723,115.03 909.633,113.703 886.542,112.437 863.451,111.228 840.36,110.091 817.269,109.01 794.178,107.978 771.087,106.993 747.996,106.06 724.906,105.201 701.815,104.381 678.724,103.599 655.633,102.852 632.542,102.139 609.451,101.458 586.36,100.808 563.269,100.188 540.179,99.596 517.088,99.0306 493.997,98.4909 470.906,97.9757 447.815,97.4839 424.724,97.0144 401.633,96.5663 378.542,96.1385 355.451,95.7302 332.361,95.3405 309.27,94.9684 286.179,94.6133 "/>
<polyline clip-path="url(#clip752)" style="stroke:#00a9ad; stroke-linecap:round; stroke-linejoin:round; stroke-width:4; stroke-opacity:1; fill:none" points="2572.18,745.487 2549.09,745.487 2525.99,745.487 2502.9,745.487 2479.81,745.487 2456.72,745.487 2433.63,745.487 2410.54,745.487 2387.45,745.487 2364.36,745.487 2341.27,745.487 2318.18,745.487 2295.09,745.487 2271.99,745.487 2248.9,745.487 2225.81,745.487 2202.72,745.487 2179.63,745.487 2156.54,745.487 2133.45,745.487 2110.36,745.487 2087.27,745.487 2064.18,745.487 2041.09,745.487 2017.99,745.487 1994.9,745.487 1971.81,745.487 1948.72,745.487 1925.63,745.487 1902.54,745.487 1879.45,745.487 1856.36,745.487 1833.27,745.487 1810.18,745.487 1787.09,745.487 1764,745.487 1740.9,745.487 1717.81,745.487 1694.72,745.487 1671.63,745.487 1648.54,745.487 1625.45,745.487 1602.36,745.487 1579.27,745.487 1556.18,745.487 1533.09,745.487 1510,745.487 1486.9,745.487 1463.81,745.487 1440.72,745.487 1417.63,745.487 1394.54,745.487 1371.45,745.487 1348.36,745.487 1325.27,745.487 1302.18,745.487 1279.09,745.487 1256,745.487 1232.9,745.487 1209.81,745.487 1186.72,745.487 1163.63,745.487 1140.54,745.487 1117.45,745.487 1094.36,745.487 1071.27,745.487 1048.18,745.487 1025.09,745.487 1002,745.487 978.905,745.487 955.814,745.487 932.723,745.487 909.633,745.487 886.542,745.487 863.451,745.487 840.36,745.487 817.269,745.487 794.178,745.487 771.087,745.487 747.996,745.357 724.906,744.693 701.815,744.061 678.724,743.456 655.633,742.88 632.542,742.329 609.451,741.804 586.36,741.302 563.269,740.823 540.179,740.366 517.088,739.93 493.997,739.514 470.906,739.116 447.815,738.737 424.724,738.374 401.633,738.029 378.542,737.698 355.451,737.383 332.361,737.083 309.27,736.796 286.179,736.522 "/>
<polyline clip-path="url(#clip752)" style="stroke:#ed5d92; stroke-linecap:round; stroke-linejoin:round; stroke-width:4; stroke-opacity:1; fill:none" points="2572.18,745.487 2549.09,745.487 2525.99,745.487 2502.9,745.487 2479.81,745.487 2456.72,745.487 2433.63,745.487 2410.54,745.487 2387.45,745.487 2364.36,745.487 2341.27,745.487 2318.18,745.487 2295.09,745.487 2271.99,745.487 2248.9,745.487 2225.81,745.487 2202.72,745.487 2179.63,745.487 2156.54,745.487 2133.45,745.487 2110.36,745.487 2087.27,745.487 2064.18,745.487 2041.09,745.487 2017.99,745.487 1994.9,745.487 1971.81,745.487 1948.72,745.487 1925.63,745.487 1902.54,745.487 1879.45,745.487 1856.36,745.487 1833.27,745.487 1810.18,745.487 1787.09,745.487 1764,745.487 1740.9,745.487 1717.81,745.487 1694.72,745.487 1671.63,745.487 1648.54,745.487 1625.45,745.487 1602.36,745.487 1579.27,745.487 1556.18,745.487 1533.09,745.487 1510,745.487 1486.9,745.487 1463.81,745.487 1440.72,745.487 1417.63,745.487 1394.54,745.487 1371.45,745.487 1348.36,745.487 1325.27,745.487 1302.18,745.487 1279.09,745.487 1256,745.487 1232.9,745.487 1209.81,745.487 1186.72,745.487 1163.63,745.487 1140.54,745.487 1117.45,745.487 1094.36,745.487 1071.27,745.487 1048.18,745.487 1025.09,745.487 1002,745.487 978.905,745.487 955.814,745.487 932.723,745.487 909.633,745.487 886.542,745.487 863.451,745.487 840.36,744.719 817.269,743.785 794.178,742.894 771.087,742.044 747.996,741.231 724.906,740.453 701.815,739.71 678.724,739.002 655.633,738.325 632.542,737.679 609.451,737.062 586.36,736.474 563.269,735.912 540.179,735.375 517.088,734.864 493.997,734.375 470.906,733.909 447.815,733.464 424.724,733.039 401.633,732.634 378.542,732.247 355.451,731.877 332.361,731.524 309.27,731.188 286.179,730.866 "/>
<polyline clip-path="url(#clip752)" style="stroke:#c68125; stroke-linecap:round; stroke-linejoin:round; stroke-width:4; stroke-opacity:1; fill:none" points="2572.18,745.487 2549.09,745.487 2525.99,745.487 2502.9,745.487 2479.81,745.487 2456.72,745.487 2433.63,745.487 2410.54,745.487 2387.45,745.487 2364.36,745.487 2341.27,745.487 2318.18,745.487 2295.09,745.487 2271.99,745.487 2248.9,745.487 2225.81,745.487 2202.72,745.487 2179.63,745.487 2156.54,745.487 2133.45,745.487 2110.36,745.487 2087.27,745.487 2064.18,745.487 2041.09,745.487 2017.99,745.487 1994.9,745.487 1971.81,745.487 1948.72,745.487 1925.63,745.487 1902.54,745.487 1879.45,745.487 1856.36,745.487 1833.27,745.487 1810.18,745.487 1787.09,745.487 1764,745.487 1740.9,745.487 1717.81,745.487 1694.72,745.487 1671.63,745.487 1648.54,745.487 1625.45,745.487 1602.36,745.487 1579.27,745.487 1556.18,745.487 1533.09,745.487 1510,745.487 1486.9,745.487 1463.81,745.487 1440.72,745.487 1417.63,745.487 1394.54,745.487 1371.45,745.487 1348.36,745.487 1325.27,745.487 1302.18,745.487 1279.09,745.487 1256,745.487 1232.9,745.487 1209.81,745.487 1186.72,745.487 1163.63,745.487 1140.54,745.487 1117.45,745.487 1094.36,745.487 1071.27,745.487 1048.18,745.487 1025.09,745.147 1002,743.853 978.905,742.618 955.814,741.44 932.723,740.314 909.633,739.24 886.542,738.215 863.451,737.237 840.36,736.319 817.269,735.446 794.178,734.614 771.087,733.819 747.996,733.061 724.906,732.339 701.815,731.649 678.724,730.991 655.633,730.363 632.542,729.763 609.451,729.191 586.36,728.645 563.269,728.123 540.179,727.625 517.088,727.155 493.997,726.71 470.906,726.284 447.815,725.878 424.724,725.491 401.633,725.121 378.542,724.768 355.451,724.431 332.361,724.109 309.27,723.802 286.179,723.509 "/>
</svg>
